#!OML:ASF F:\VICON\USERDATA\INSTALL\rory3\rory3.ASF
:FULLY-SPECIFIED
:DEGREES
799
root 0.0741173 17.992 6.20133 -0.490074 26.3089 4.03143
lowerback 19.221 -1.69433 -1.50825
upperback 2.81278 -2.41836 0.794314
thorax -7.61154 -1.09327 2.32296
lowerneck -13.2939 -14.8876 -18.2595
upperneck 14.1674 -20.3694 18.5054
head 10.644 -9.03854 6.18256
rclavicle 4.94974e-014 -1.11319e-014
rhumerus -18.3962 9.51963 -83.1194
rradius 36.2623
rwrist 4.15524
rhand -24.2995 10.144
rfingers 7.12502
rthumb 2.18814 -19.8245
lclavicle 4.94974e-014 -1.11319e-014
lhumerus -25.8005 -13.8979 94.1854
lradius 53.5356
lwrist 3.21278
lhand -27.4052 26.597
lfingers 7.12502
lthumb -0.811413 56.5752
rfemur -18.7803 -12.4632 20.6474
rtibia 28.9938
rfoot -4.73795 -10.0377
rtoes 14.8734
lfemur -11.7461 6.38899 -18.9569
ltibia 50.9457
lfoot -8.61746 -7.81303
ltoes -17.5027
800
root 0.066315 17.9961 6.16478 -0.63545 26.0164 4.01876
lowerback 18.942 -1.73884 -1.56971
upperback 2.69086 -2.4893 0.8098
thorax -7.58625 -1.12689 2.38432
lowerneck -13.3217 -14.8915 -18.2836
upperneck 14.375 -20.3841 18.4203
head 10.7168 -9.04604 6.15374
rclavicle -7.95139e-015 1.59028e-015
rhumerus -18.9158 8.90277 -83.0073
rradius 36.0816
rwrist 3.87013
rhand -24.76 10.2164
rfingers 7.12502
rthumb 1.74335 -19.7563
lclavicle -7.95139e-015 1.59028e-015
lhumerus -25.8405 -13.8058 94.1032
lradius 53.5826
lwrist 3.60725
lhand -27.4477 26.2624
lfingers 7.12502
lthumb -0.85248 56.2405
rfemur -18.5976 -12.315 20.6377
rtibia 28.6036
rfoot -4.44663 -9.91651
rtoes 15.2807
lfemur -11.0017 6.65634 -19.1353
ltibia 51.4111
lfoot -8.34559 -8.12587
ltoes -17.536
801
root 0.0570814 17.9949 6.12963 -0.765317 25.7937 4.02873
lowerback 18.6517 -1.79271 -1.70329
upperback 2.56788 -2.5837 0.858352
thorax -7.54927 -1.16953 2.52696
lowerneck -13.4421 -14.9244 -18.3133
upperneck 14.7041 -20.4245 18.2525
head 10.8447 -9.06335 6.08621
rclavicle 4.60187e-014 1.59028e-015
rhumerus -19.4093 8.18851 -82.8622
rradius 35.8774
rwrist 3.68119
rhand -24.819 10.0319
rfingers 7.12502
rthumb 1.68639 -19.9412
lclavicle 4.60187e-014 1.59028e-015
lhumerus -25.7545 -13.4198 93.9221
lradius 53.4207
lwrist 3.00273
lhand -27.3909 26.6845
lfingers 7.12502
lthumb -0.797626 56.6628
rfemur -18.4007 -12.2351 20.6313
rtibia 28.1964
rfoot -4.09916 -9.76546
rtoes 14.9613
lfemur -10.2439 6.89467 -19.3339
ltibia 51.7496
lfoot -8.06705 -8.4655
ltoes -17.8811
802
root 0.0440684 17.9919 6.09184 -1.00415 25.6533 3.87683
lowerback 18.3996 -1.89689 -1.71569
upperback 2.50478 -2.71515 0.947385
thorax -7.46871 -1.23376 2.65228
lowerneck -13.53 -14.9308 -18.337
upperneck 14.9025 -20.4323 18.1754
head 10.9258 -9.06393 6.05805
rclavicle 4.41302e-014 -7.95139e-016
rhumerus -19.8134 7.62609 -82.7176
rradius 35.6596
rwrist 3.37234
rhand -24.6276 9.67138
rfingers 7.12502
rthumb 1.87127 -20.3002
lclavicle 4.41302e-014 -7.95139e-016
lhumerus -25.54 -13.1035 93.6803
lradius 53.2533
lwrist 2.5289
lhand -28.3331 28.1784
lfingers 7.12502
lthumb -1.70762 58.1513
rfemur -18.1739 -12.0705 20.7673
rtibia 27.8042
rfoot -3.71716 -9.70874
rtoes 14.3656
lfemur -9.43065 7.04452 -19.3427
ltibia 51.9521
lfoot -7.87104 -8.88211
ltoes -18.9283
803
root 0.0286178 17.9943 6.05384 -1.2809 25.5197 3.61883
lowerback 18.1429 -2.02911 -1.59966
upperback 2.46227 -2.85981 1.01485
thorax -7.36942 -1.30872 2.68275
lowerneck -13.6017 -14.8884 -18.2236
upperneck 15.0275 -20.3895 18.0984
head 10.9518 -9.03742 6.02179
rclavicle -5.57591e-014 -9.54166e-015
rhumerus -20.2557 7.08965 -82.6491
rradius 35.4603
rwrist 3.15552
rhand -24.4421 9.25745
rfingers 7.12502
rthumb 2.05036 -20.7124
lclavicle -5.57591e-014 -9.54166e-015
lhumerus -25.1733 -13.0534 93.4026
lradius 52.9584
lwrist 2.59014
lhand -28.5119 28.2676
lfingers 7.12502
lthumb -1.88033 58.2391
rfemur -17.9653 -11.8059 21.0034
rtibia 27.452
rfoot -3.33746 -9.70167
rtoes 13.3475
lfemur -8.59774 7.1954 -19.2385
ltibia 52.0064
lfoot -7.73661 -9.2303
ltoes -20.5638
804
root 0.0151551 18.0001 6.0153 -1.50149 25.4021 3.55105
lowerback 17.956 -2.13524 -1.66146
upperback 2.36662 -3.0084 1.06351
thorax -7.35718 -1.37889 2.79904
lowerneck -13.5117 -14.8009 -18.2228
upperneck 15.1184 -20.2916 18.0773
head 10.9453 -8.99855 6.04387
rclavicle 5.35725e-014 -3.97569e-015
rhumerus -20.8027 6.33451 -82.5108
rradius 35.2138
rwrist 3.34668
rhand -24.1197 8.9049
rfingers 7.12502
rthumb 2.36179 -21.0618
lclavicle 5.35725e-014 -3.97569e-015
lhumerus -24.7535 -12.8801 93.2119
lradius 52.4124
lwrist 2.47742
lhand -28.2222 28.0057
lfingers 7.12502
lthumb -1.6005 57.9795
rfemur -17.7306 -11.6525 21.0413
rtibia 27.1219
rfoot -3.01334 -9.62498
rtoes 12.8132
lfemur -7.71151 7.30593 -19.3437
ltibia 51.9018
lfoot -7.21992 -9.40806
ltoes -20.5889
805
root 0.00516227 17.9982 5.97348 -1.62908 25.3178 3.57713
lowerback 17.7423 -2.22098 -1.75101
upperback 2.20616 -3.13922 1.07705
thorax -7.40117 -1.43868 2.88951
lowerneck -13.2447 -14.7385 -18.2728
upperneck 15.1869 -20.247 18.0655
head 10.9154 -8.99719 6.07411
rclavicle 7.55382e-015 1.59028e-015
rhumerus -21.4076 5.42736 -82.3043
rradius 34.8813
rwrist 3.39385
rhand -23.8214 8.70726
rfingers 7.12502
rthumb 2.64989 -21.256
lclavicle 7.55382e-015 1.59028e-015
lhumerus -24.7274 -12.5862 93.1084
lradius 52.2664
lwrist 2.21989
lhand -28.3771 28.4057
lfingers 7.12502
lthumb -1.75016 58.3783
rfemur -17.5867 -11.5768 20.9796
rtibia 26.8218
rfoot -2.72644 -9.58871
rtoes 12.7005
lfemur -6.8414 7.28466 -19.6
ltibia 51.6315
lfoot -6.53515 -9.59981
ltoes -19.3259
